<mxfile host="app.diagrams.net" agent="Mozilla/5.0 (Windows NT 10.0; Win64; x64) AppleWebKit/537.36 (KHTML, like Gecko) Chrome/137.0.0.0 Safari/537.36" version="27.1.4" pages="5">
  <diagram name="Home Page" id="4670nqF0AdrpDeUxHFpj">
    <mxGraphModel dx="2013" dy="755" grid="1" gridSize="10" guides="1" tooltips="1" connect="1" arrows="1" fold="1" page="1" pageScale="1" pageWidth="827" pageHeight="1169" math="0" shadow="0">
      <root>
        <mxCell id="0" />
        <mxCell id="1" parent="0" />
        <mxCell id="oLLlvr9HAODhK2ZkBD-y-2" value="&lt;div&gt;&lt;span style=&quot;font-size: 14px; background-color: transparent; color: light-dark(rgb(0, 0, 0), rgb(255, 255, 255));&quot;&gt;Study Manager&lt;/span&gt;&lt;/div&gt;" style="swimlane;whiteSpace=wrap;html=1;startSize=40;align=center;fillColor=#F8F5F2;" parent="1" vertex="1">
          <mxGeometry x="-23" y="120" width="730" height="490" as="geometry">
            <mxRectangle x="130" y="100" width="50" height="40" as="alternateBounds" />
          </mxGeometry>
        </mxCell>
        <mxCell id="oLLlvr9HAODhK2ZkBD-y-3" value="" style="rounded=0;whiteSpace=wrap;html=1;movable=1;resizable=1;rotatable=1;deletable=1;editable=1;locked=0;connectable=1;fillColor=#F8F5F2;" parent="oLLlvr9HAODhK2ZkBD-y-2" vertex="1">
          <mxGeometry y="40" width="730" height="450" as="geometry" />
        </mxCell>
        <mxCell id="oLLlvr9HAODhK2ZkBD-y-11" value="" style="ellipse;whiteSpace=wrap;html=1;aspect=fixed;fillColor=#f8cecc;strokeColor=#b85450;" parent="oLLlvr9HAODhK2ZkBD-y-2" vertex="1">
          <mxGeometry x="9" y="10" width="20" height="20" as="geometry" />
        </mxCell>
        <mxCell id="oLLlvr9HAODhK2ZkBD-y-10" value="" style="ellipse;whiteSpace=wrap;html=1;aspect=fixed;fillColor=#fff2cc;strokeColor=#d6b656;" parent="oLLlvr9HAODhK2ZkBD-y-2" vertex="1">
          <mxGeometry x="39" y="10" width="20" height="20" as="geometry" />
        </mxCell>
        <mxCell id="oLLlvr9HAODhK2ZkBD-y-8" value="" style="ellipse;whiteSpace=wrap;html=1;aspect=fixed;fillColor=#d5e8d4;strokeColor=#82b366;" parent="oLLlvr9HAODhK2ZkBD-y-2" vertex="1">
          <mxGeometry x="69" y="10" width="20" height="20" as="geometry" />
        </mxCell>
        <mxCell id="wxQYweb1L1FLzqe99UsH-3" value="&lt;font style=&quot;font-size: 18px;&quot;&gt;Dashboard&lt;/font&gt;" style="text;html=1;align=center;verticalAlign=middle;whiteSpace=wrap;rounded=0;" parent="oLLlvr9HAODhK2ZkBD-y-2" vertex="1">
          <mxGeometry x="25.5" y="80" width="107" height="30" as="geometry" />
        </mxCell>
        <mxCell id="wxQYweb1L1FLzqe99UsH-4" value="&lt;font style=&quot;color: rgb(254, 255, 255);&quot;&gt;&lt;font style=&quot;font-size: 17px;&quot;&gt;+ &lt;/font&gt;Add Task&lt;/font&gt;" style="whiteSpace=wrap;html=1;fillColor=#5DAC70;strokeColor=none;rounded=1;" parent="oLLlvr9HAODhK2ZkBD-y-2" vertex="1">
          <mxGeometry x="613" y="55" width="90" height="40" as="geometry" />
        </mxCell>
        <mxCell id="wxQYweb1L1FLzqe99UsH-7" value="" style="group" parent="oLLlvr9HAODhK2ZkBD-y-2" vertex="1" connectable="0">
          <mxGeometry x="423" y="130" width="247" height="240" as="geometry" />
        </mxCell>
        <mxCell id="wxQYweb1L1FLzqe99UsH-2" value="" style="whiteSpace=wrap;html=1;fillColor=#FEFFFF;strokeColor=none;rounded=1;glass=0;shadow=0;" parent="wxQYweb1L1FLzqe99UsH-7" vertex="1">
          <mxGeometry width="247" height="240" as="geometry" />
        </mxCell>
        <mxCell id="wxQYweb1L1FLzqe99UsH-5" value="" style="sketch=0;pointerEvents=1;shadow=0;dashed=0;html=1;strokeColor=none;fillColor=#505050;labelPosition=center;verticalLabelPosition=bottom;verticalAlign=top;outlineConnect=0;align=center;shape=mxgraph.office.concepts.calendar;" parent="wxQYweb1L1FLzqe99UsH-7" vertex="1">
          <mxGeometry x="13" y="10" width="221" height="220" as="geometry" />
        </mxCell>
        <mxCell id="wxQYweb1L1FLzqe99UsH-10" value="You have a study session schedule in:&lt;div&gt;2 hours&lt;/div&gt;" style="rounded=1;whiteSpace=wrap;html=1;fillColor=#d5e8d4;strokeColor=#82b366;" parent="oLLlvr9HAODhK2ZkBD-y-2" vertex="1">
          <mxGeometry x="59" y="370" width="221" height="40" as="geometry" />
        </mxCell>
        <mxCell id="wxQYweb1L1FLzqe99UsH-11" value="&lt;font face=&quot;Verdana&quot; style=&quot;color: rgb(254, 255, 255);&quot;&gt;You&#39;ve studied 3 days&amp;nbsp;&lt;/font&gt;&lt;div&gt;&lt;font face=&quot;Verdana&quot; style=&quot;color: rgb(254, 255, 255);&quot;&gt;in a row!&lt;/font&gt;&lt;/div&gt;" style="rounded=1;whiteSpace=wrap;html=1;fillColor=#DF7341;" parent="oLLlvr9HAODhK2ZkBD-y-2" vertex="1">
          <mxGeometry x="341" y="55" width="191" height="50" as="geometry" />
        </mxCell>
        <mxCell id="wxQYweb1L1FLzqe99UsH-19" value="" style="group" parent="oLLlvr9HAODhK2ZkBD-y-2" vertex="1" connectable="0">
          <mxGeometry x="39" y="120" width="261" height="100" as="geometry" />
        </mxCell>
        <mxCell id="wxQYweb1L1FLzqe99UsH-8" value="" style="rounded=1;whiteSpace=wrap;html=1;align=left;fillColor=#AD4849;" parent="wxQYweb1L1FLzqe99UsH-19" vertex="1">
          <mxGeometry width="261" height="100" as="geometry" />
        </mxCell>
        <mxCell id="wxQYweb1L1FLzqe99UsH-12" value="&lt;font style=&quot;color: rgb(254, 255, 255);&quot;&gt;Exam&lt;/font&gt;" style="text;html=1;align=center;verticalAlign=middle;whiteSpace=wrap;rounded=0;" parent="wxQYweb1L1FLzqe99UsH-19" vertex="1">
          <mxGeometry width="60" height="30" as="geometry" />
        </mxCell>
        <mxCell id="wxQYweb1L1FLzqe99UsH-13" value="&lt;font style=&quot;color: rgb(254, 255, 255);&quot;&gt;Calculus&lt;/font&gt;" style="text;html=1;align=center;verticalAlign=middle;whiteSpace=wrap;rounded=0;" parent="wxQYweb1L1FLzqe99UsH-19" vertex="1">
          <mxGeometry x="20" y="20" width="60" height="30" as="geometry" />
        </mxCell>
        <mxCell id="wxQYweb1L1FLzqe99UsH-14" value="&lt;font color=&quot;#feffff&quot;&gt;&lt;span style=&quot;font-size: 14px;&quot;&gt;May 27, 2025&lt;/span&gt;&lt;/font&gt;" style="text;html=1;align=center;verticalAlign=middle;whiteSpace=wrap;rounded=0;" parent="wxQYweb1L1FLzqe99UsH-19" vertex="1">
          <mxGeometry x="30" y="50" width="97" height="30" as="geometry" />
        </mxCell>
        <mxCell id="wxQYweb1L1FLzqe99UsH-15" value="&lt;font style=&quot;color: rgb(254, 255, 255); font-size: 14px;&quot;&gt;1 day away!&lt;/font&gt;" style="text;html=1;align=center;verticalAlign=middle;whiteSpace=wrap;rounded=0;" parent="wxQYweb1L1FLzqe99UsH-19" vertex="1">
          <mxGeometry x="154" y="50" width="97" height="30" as="geometry" />
        </mxCell>
        <mxCell id="wxQYweb1L1FLzqe99UsH-16" value="" style="endArrow=none;html=1;rounded=0;strokeWidth=2;exitX=1;exitY=0.5;exitDx=0;exitDy=0;entryX=0;entryY=0.5;entryDx=0;entryDy=0;strokeColor=#FEFFFF;" parent="wxQYweb1L1FLzqe99UsH-19" source="wxQYweb1L1FLzqe99UsH-14" target="wxQYweb1L1FLzqe99UsH-15" edge="1">
          <mxGeometry width="50" height="50" relative="1" as="geometry">
            <mxPoint x="314" y="110" as="sourcePoint" />
            <mxPoint x="364" y="60" as="targetPoint" />
          </mxGeometry>
        </mxCell>
        <mxCell id="wxQYweb1L1FLzqe99UsH-34" value="" style="shape=doubleArrow;direction=south;whiteSpace=wrap;html=1;" parent="wxQYweb1L1FLzqe99UsH-19" vertex="1">
          <mxGeometry x="241" y="5" width="10" height="20" as="geometry" />
        </mxCell>
        <mxCell id="wxQYweb1L1FLzqe99UsH-20" value="" style="group" parent="oLLlvr9HAODhK2ZkBD-y-2" vertex="1" connectable="0">
          <mxGeometry x="39" y="230" width="261" height="100" as="geometry" />
        </mxCell>
        <mxCell id="wxQYweb1L1FLzqe99UsH-21" value="" style="rounded=1;whiteSpace=wrap;html=1;align=left;fillColor=#CFB353;" parent="wxQYweb1L1FLzqe99UsH-20" vertex="1">
          <mxGeometry width="261" height="100" as="geometry" />
        </mxCell>
        <mxCell id="wxQYweb1L1FLzqe99UsH-22" value="&lt;font style=&quot;color: rgb(254, 255, 255);&quot;&gt;Homework&lt;/font&gt;" style="text;html=1;align=center;verticalAlign=middle;whiteSpace=wrap;rounded=0;" parent="wxQYweb1L1FLzqe99UsH-20" vertex="1">
          <mxGeometry x="-6" width="100" height="30" as="geometry" />
        </mxCell>
        <mxCell id="wxQYweb1L1FLzqe99UsH-23" value="&lt;font style=&quot;color: rgb(254, 255, 255);&quot;&gt;English&lt;/font&gt;" style="text;html=1;align=center;verticalAlign=middle;whiteSpace=wrap;rounded=0;" parent="wxQYweb1L1FLzqe99UsH-20" vertex="1">
          <mxGeometry x="20" y="20" width="60" height="30" as="geometry" />
        </mxCell>
        <mxCell id="wxQYweb1L1FLzqe99UsH-24" value="&lt;font color=&quot;#feffff&quot;&gt;&lt;span style=&quot;font-size: 14px;&quot;&gt;June 3, 2025&lt;/span&gt;&lt;/font&gt;" style="text;html=1;align=center;verticalAlign=middle;whiteSpace=wrap;rounded=0;" parent="wxQYweb1L1FLzqe99UsH-20" vertex="1">
          <mxGeometry x="30" y="50" width="97" height="30" as="geometry" />
        </mxCell>
        <mxCell id="wxQYweb1L1FLzqe99UsH-25" value="&lt;font style=&quot;color: rgb(254, 255, 255); font-size: 14px;&quot;&gt;8 days away!&lt;/font&gt;" style="text;html=1;align=center;verticalAlign=middle;whiteSpace=wrap;rounded=0;" parent="wxQYweb1L1FLzqe99UsH-20" vertex="1">
          <mxGeometry x="154" y="50" width="97" height="30" as="geometry" />
        </mxCell>
        <mxCell id="wxQYweb1L1FLzqe99UsH-26" value="" style="endArrow=none;html=1;rounded=0;strokeWidth=2;exitX=1;exitY=0.5;exitDx=0;exitDy=0;entryX=0;entryY=0.5;entryDx=0;entryDy=0;strokeColor=#FEFFFF;" parent="wxQYweb1L1FLzqe99UsH-20" source="wxQYweb1L1FLzqe99UsH-24" target="wxQYweb1L1FLzqe99UsH-25" edge="1">
          <mxGeometry width="50" height="50" relative="1" as="geometry">
            <mxPoint x="314" y="110" as="sourcePoint" />
            <mxPoint x="364" y="60" as="targetPoint" />
          </mxGeometry>
        </mxCell>
        <mxCell id="wxQYweb1L1FLzqe99UsH-33" value="" style="shape=doubleArrow;direction=south;whiteSpace=wrap;html=1;" parent="wxQYweb1L1FLzqe99UsH-20" vertex="1">
          <mxGeometry x="241" y="5" width="10" height="20" as="geometry" />
        </mxCell>
        <mxCell id="9NmyEind3zfSSp6K8Fit-1" value="Save" style="rounded=0;whiteSpace=wrap;html=1;fillColor=#f5f5f5;fontColor=#333333;strokeColor=#666666;" parent="oLLlvr9HAODhK2ZkBD-y-2" vertex="1">
          <mxGeometry y="40" width="60" height="30" as="geometry" />
        </mxCell>
        <mxCell id="9NmyEind3zfSSp6K8Fit-3" value="Load" style="rounded=0;whiteSpace=wrap;html=1;fillColor=#f5f5f5;fontColor=#333333;strokeColor=#666666;" parent="oLLlvr9HAODhK2ZkBD-y-2" vertex="1">
          <mxGeometry x="59" y="40" width="60" height="30" as="geometry" />
        </mxCell>
        <mxCell id="bhnq4CewKFjUPvpvrwMd-1" value="" style="edgeStyle=orthogonalEdgeStyle;rounded=0;orthogonalLoop=1;jettySize=auto;html=1;" parent="oLLlvr9HAODhK2ZkBD-y-2" source="wxQYweb1L1FLzqe99UsH-21" target="wxQYweb1L1FLzqe99UsH-10" edge="1">
          <mxGeometry relative="1" as="geometry" />
        </mxCell>
        <mxCell id="bbdh_YT1EJvuhqLhyyiF-1" value="All Tasks" style="rounded=0;whiteSpace=wrap;html=1;fillColor=#F5F5F5;" vertex="1" parent="oLLlvr9HAODhK2ZkBD-y-2">
          <mxGeometry x="163" y="40" width="117" height="30" as="geometry" />
        </mxCell>
        <mxCell id="j5GrxW8ryiCDkH83jhiy-1" value="Task at (chosen date)" style="rounded=1;whiteSpace=wrap;html=1;" vertex="1" parent="oLLlvr9HAODhK2ZkBD-y-2">
          <mxGeometry x="451.5" y="405" width="190" height="60" as="geometry" />
        </mxCell>
      </root>
    </mxGraphModel>
  </diagram>
  <diagram id="jCcU3i525nK6tvmZZlyi" name="Calendar Page">
    <mxGraphModel dx="2485" dy="894" grid="1" gridSize="10" guides="1" tooltips="1" connect="1" arrows="1" fold="1" page="1" pageScale="1" pageWidth="1654" pageHeight="2336" math="0" shadow="0">
      <root>
        <mxCell id="0" />
        <mxCell id="1" parent="0" />
        <mxCell id="qwZyG3kf4MFTueyCpq1g-1" value="&lt;div&gt;&lt;span style=&quot;font-size: 14px; background-color: transparent; color: light-dark(rgb(0, 0, 0), rgb(255, 255, 255));&quot;&gt;Study Manager&lt;/span&gt;&lt;/div&gt;" style="swimlane;whiteSpace=wrap;html=1;startSize=40;align=center;fillColor=#F8F5F2;" vertex="1" parent="1">
          <mxGeometry x="-23" y="120" width="730" height="490" as="geometry">
            <mxRectangle x="130" y="100" width="50" height="40" as="alternateBounds" />
          </mxGeometry>
        </mxCell>
        <mxCell id="qwZyG3kf4MFTueyCpq1g-2" value="" style="rounded=0;whiteSpace=wrap;html=1;movable=1;resizable=1;rotatable=1;deletable=1;editable=1;locked=0;connectable=1;fillColor=#F8F5F2;" vertex="1" parent="qwZyG3kf4MFTueyCpq1g-1">
          <mxGeometry y="40" width="730" height="450" as="geometry" />
        </mxCell>
        <mxCell id="qwZyG3kf4MFTueyCpq1g-3" value="" style="ellipse;whiteSpace=wrap;html=1;aspect=fixed;fillColor=#f8cecc;strokeColor=#b85450;" vertex="1" parent="qwZyG3kf4MFTueyCpq1g-1">
          <mxGeometry x="9" y="10" width="20" height="20" as="geometry" />
        </mxCell>
        <mxCell id="qwZyG3kf4MFTueyCpq1g-4" value="" style="ellipse;whiteSpace=wrap;html=1;aspect=fixed;fillColor=#fff2cc;strokeColor=#d6b656;" vertex="1" parent="qwZyG3kf4MFTueyCpq1g-1">
          <mxGeometry x="39" y="10" width="20" height="20" as="geometry" />
        </mxCell>
        <mxCell id="qwZyG3kf4MFTueyCpq1g-5" value="" style="ellipse;whiteSpace=wrap;html=1;aspect=fixed;fillColor=#d5e8d4;strokeColor=#82b366;" vertex="1" parent="qwZyG3kf4MFTueyCpq1g-1">
          <mxGeometry x="69" y="10" width="20" height="20" as="geometry" />
        </mxCell>
        <mxCell id="qwZyG3kf4MFTueyCpq1g-8" value="" style="group" vertex="1" connectable="0" parent="qwZyG3kf4MFTueyCpq1g-1">
          <mxGeometry x="69" y="90" width="590" height="340" as="geometry" />
        </mxCell>
        <mxCell id="qwZyG3kf4MFTueyCpq1g-9" value="" style="whiteSpace=wrap;html=1;fillColor=#FEFFFF;strokeColor=none;rounded=1;glass=0;shadow=0;" vertex="1" parent="qwZyG3kf4MFTueyCpq1g-8">
          <mxGeometry width="590" height="340" as="geometry" />
        </mxCell>
        <mxCell id="qwZyG3kf4MFTueyCpq1g-10" value="" style="sketch=0;pointerEvents=1;shadow=0;dashed=0;html=1;strokeColor=none;fillColor=#505050;labelPosition=center;verticalLabelPosition=bottom;verticalAlign=top;outlineConnect=0;align=center;shape=mxgraph.office.concepts.calendar;" vertex="1" parent="qwZyG3kf4MFTueyCpq1g-8">
          <mxGeometry x="31.05263157894737" y="14.166666666666668" width="527.8947368421053" height="311.6666666666667" as="geometry" />
        </mxCell>
        <mxCell id="qwZyG3kf4MFTueyCpq1g-29" value="Save" style="rounded=0;whiteSpace=wrap;html=1;fillColor=#f5f5f5;fontColor=#333333;strokeColor=#666666;" vertex="1" parent="qwZyG3kf4MFTueyCpq1g-1">
          <mxGeometry y="40" width="60" height="30" as="geometry" />
        </mxCell>
        <mxCell id="qwZyG3kf4MFTueyCpq1g-30" value="Load" style="rounded=0;whiteSpace=wrap;html=1;fillColor=#f5f5f5;fontColor=#333333;strokeColor=#666666;" vertex="1" parent="qwZyG3kf4MFTueyCpq1g-1">
          <mxGeometry x="59" y="40" width="60" height="30" as="geometry" />
        </mxCell>
        <mxCell id="mT1YNSGkdwxoIxCDGz9x-1" value="Back" style="rounded=1;whiteSpace=wrap;html=1;fillColor=#f8cecc;strokeColor=#b85450;" vertex="1" parent="qwZyG3kf4MFTueyCpq1g-1">
          <mxGeometry x="29" y="440" width="80" height="30" as="geometry" />
        </mxCell>
      </root>
    </mxGraphModel>
  </diagram>
  <diagram id="WPeH5GPR14aPZ8EJWzuj" name="Welcome page">
    <mxGraphModel dx="706" dy="760" grid="1" gridSize="10" guides="1" tooltips="1" connect="1" arrows="1" fold="1" page="1" pageScale="1" pageWidth="1654" pageHeight="2336" math="0" shadow="0">
      <root>
        <mxCell id="0" />
        <mxCell id="1" parent="0" />
        <mxCell id="q_XSR-VzJK7cAxLMn_fy-2" value="&lt;div&gt;&lt;span style=&quot;font-size: 14px; background-color: transparent; color: light-dark(rgb(0, 0, 0), rgb(255, 255, 255));&quot;&gt;Study Manager&lt;/span&gt;&lt;/div&gt;" style="swimlane;whiteSpace=wrap;html=1;startSize=40;align=center;fillColor=#F8F5F2;" vertex="1" parent="1">
          <mxGeometry x="250" y="560" width="480" height="420" as="geometry">
            <mxRectangle x="130" y="100" width="50" height="40" as="alternateBounds" />
          </mxGeometry>
        </mxCell>
        <mxCell id="q_XSR-VzJK7cAxLMn_fy-3" value="" style="rounded=0;whiteSpace=wrap;html=1;movable=1;resizable=1;rotatable=1;deletable=1;editable=1;locked=0;connectable=1;fillColor=#F8F5F2;" vertex="1" parent="q_XSR-VzJK7cAxLMn_fy-2">
          <mxGeometry y="40" width="480" height="380" as="geometry" />
        </mxCell>
        <mxCell id="q_XSR-VzJK7cAxLMn_fy-4" value="" style="ellipse;whiteSpace=wrap;html=1;aspect=fixed;fillColor=#f8cecc;strokeColor=#b85450;" vertex="1" parent="q_XSR-VzJK7cAxLMn_fy-2">
          <mxGeometry x="9" y="10" width="20" height="20" as="geometry" />
        </mxCell>
        <mxCell id="q_XSR-VzJK7cAxLMn_fy-5" value="" style="ellipse;whiteSpace=wrap;html=1;aspect=fixed;fillColor=#fff2cc;strokeColor=#d6b656;" vertex="1" parent="q_XSR-VzJK7cAxLMn_fy-2">
          <mxGeometry x="39" y="10" width="20" height="20" as="geometry" />
        </mxCell>
        <mxCell id="q_XSR-VzJK7cAxLMn_fy-6" value="" style="ellipse;whiteSpace=wrap;html=1;aspect=fixed;fillColor=#d5e8d4;strokeColor=#82b366;" vertex="1" parent="q_XSR-VzJK7cAxLMn_fy-2">
          <mxGeometry x="69" y="10" width="20" height="20" as="geometry" />
        </mxCell>
        <mxCell id="q_XSR-VzJK7cAxLMn_fy-32" value="Load" style="rounded=1;whiteSpace=wrap;html=1;glass=0;shadow=1;" vertex="1" parent="q_XSR-VzJK7cAxLMn_fy-2">
          <mxGeometry x="80" y="310" width="120" height="60" as="geometry" />
        </mxCell>
        <mxCell id="q_XSR-VzJK7cAxLMn_fy-34" value="Save" style="rounded=1;whiteSpace=wrap;html=1;glass=0;shadow=1;" vertex="1" parent="q_XSR-VzJK7cAxLMn_fy-2">
          <mxGeometry x="290" y="310" width="120" height="60" as="geometry" />
        </mxCell>
        <mxCell id="dPe-HKn-quSA077PvCxH-1" value="&lt;font style=&quot;font-size: 24px;&quot;&gt;Welcome&lt;/font&gt;" style="rounded=0;whiteSpace=wrap;html=1;" vertex="1" parent="q_XSR-VzJK7cAxLMn_fy-2">
          <mxGeometry x="85" y="80" width="310" height="90" as="geometry" />
        </mxCell>
      </root>
    </mxGraphModel>
  </diagram>
  <diagram id="fINUXRtsAnunxSUJpGOk" name="Add task">
    <mxGraphModel dx="1186" dy="755" grid="1" gridSize="10" guides="1" tooltips="1" connect="1" arrows="1" fold="1" page="1" pageScale="1" pageWidth="1654" pageHeight="2336" math="0" shadow="0">
      <root>
        <mxCell id="0" />
        <mxCell id="1" parent="0" />
        <mxCell id="Zn7WNAHiJYzXY8eQGt-7-1" value="&lt;div&gt;&lt;span style=&quot;font-size: 14px; background-color: transparent; color: light-dark(rgb(0, 0, 0), rgb(255, 255, 255));&quot;&gt;Study Manager&lt;/span&gt;&lt;/div&gt;" style="swimlane;whiteSpace=wrap;html=1;startSize=40;align=center;fillColor=#F8F5F2;" parent="1" vertex="1">
          <mxGeometry x="450" y="730" width="730" height="490" as="geometry">
            <mxRectangle x="130" y="100" width="50" height="40" as="alternateBounds" />
          </mxGeometry>
        </mxCell>
        <mxCell id="Zn7WNAHiJYzXY8eQGt-7-2" value="" style="rounded=0;whiteSpace=wrap;html=1;movable=1;resizable=1;rotatable=1;deletable=1;editable=1;locked=0;connectable=1;fillColor=#F8F5F2;" parent="Zn7WNAHiJYzXY8eQGt-7-1" vertex="1">
          <mxGeometry y="40" width="730" height="450" as="geometry" />
        </mxCell>
        <mxCell id="Zn7WNAHiJYzXY8eQGt-7-3" value="" style="ellipse;whiteSpace=wrap;html=1;aspect=fixed;fillColor=#f8cecc;strokeColor=#b85450;" parent="Zn7WNAHiJYzXY8eQGt-7-1" vertex="1">
          <mxGeometry x="9" y="10" width="20" height="20" as="geometry" />
        </mxCell>
        <mxCell id="Zn7WNAHiJYzXY8eQGt-7-4" value="" style="ellipse;whiteSpace=wrap;html=1;aspect=fixed;fillColor=#fff2cc;strokeColor=#d6b656;" parent="Zn7WNAHiJYzXY8eQGt-7-1" vertex="1">
          <mxGeometry x="39" y="10" width="20" height="20" as="geometry" />
        </mxCell>
        <mxCell id="Zn7WNAHiJYzXY8eQGt-7-5" value="" style="ellipse;whiteSpace=wrap;html=1;aspect=fixed;fillColor=#d5e8d4;strokeColor=#82b366;" parent="Zn7WNAHiJYzXY8eQGt-7-1" vertex="1">
          <mxGeometry x="69" y="10" width="20" height="20" as="geometry" />
        </mxCell>
        <mxCell id="0ZaWpNBGSj2NLat99piF-2" value="Choose type of task:" style="text;html=1;align=center;verticalAlign=middle;whiteSpace=wrap;rounded=0;" vertex="1" parent="Zn7WNAHiJYzXY8eQGt-7-1">
          <mxGeometry x="39" y="90" width="140" height="30" as="geometry" />
        </mxCell>
        <mxCell id="0ZaWpNBGSj2NLat99piF-4" value="" style="ellipse;whiteSpace=wrap;html=1;aspect=fixed;" vertex="1" parent="Zn7WNAHiJYzXY8eQGt-7-1">
          <mxGeometry x="74" y="130" width="10" height="10" as="geometry" />
        </mxCell>
        <mxCell id="0ZaWpNBGSj2NLat99piF-5" value="" style="ellipse;whiteSpace=wrap;html=1;aspect=fixed;" vertex="1" parent="Zn7WNAHiJYzXY8eQGt-7-1">
          <mxGeometry x="74" y="150" width="10" height="10" as="geometry" />
        </mxCell>
        <mxCell id="0ZaWpNBGSj2NLat99piF-6" value="" style="ellipse;whiteSpace=wrap;html=1;aspect=fixed;" vertex="1" parent="Zn7WNAHiJYzXY8eQGt-7-1">
          <mxGeometry x="74" y="170" width="10" height="10" as="geometry" />
        </mxCell>
        <mxCell id="0ZaWpNBGSj2NLat99piF-7" value="Exam" style="text;html=1;align=center;verticalAlign=middle;whiteSpace=wrap;rounded=0;" vertex="1" parent="Zn7WNAHiJYzXY8eQGt-7-1">
          <mxGeometry x="89" y="120" width="70" height="30" as="geometry" />
        </mxCell>
        <mxCell id="0ZaWpNBGSj2NLat99piF-8" value="Assignment" style="text;html=1;align=center;verticalAlign=middle;whiteSpace=wrap;rounded=0;" vertex="1" parent="Zn7WNAHiJYzXY8eQGt-7-1">
          <mxGeometry x="100" y="140" width="70" height="30" as="geometry" />
        </mxCell>
        <mxCell id="0ZaWpNBGSj2NLat99piF-9" value="Study Session" style="text;html=1;align=center;verticalAlign=middle;whiteSpace=wrap;rounded=0;" vertex="1" parent="Zn7WNAHiJYzXY8eQGt-7-1">
          <mxGeometry x="90" y="160" width="90" height="30" as="geometry" />
        </mxCell>
        <mxCell id="0ZaWpNBGSj2NLat99piF-10" value="" style="rounded=1;whiteSpace=wrap;html=1;" vertex="1" parent="Zn7WNAHiJYzXY8eQGt-7-1">
          <mxGeometry x="89" y="227.5" width="205" height="32.5" as="geometry" />
        </mxCell>
        <mxCell id="0ZaWpNBGSj2NLat99piF-11" value="Subject" style="text;html=1;align=center;verticalAlign=middle;whiteSpace=wrap;rounded=0;" vertex="1" parent="Zn7WNAHiJYzXY8eQGt-7-1">
          <mxGeometry x="79" y="197.5" width="60" height="30" as="geometry" />
        </mxCell>
        <mxCell id="0ZaWpNBGSj2NLat99piF-12" value="Description" style="text;html=1;align=center;verticalAlign=middle;whiteSpace=wrap;rounded=0;" vertex="1" parent="Zn7WNAHiJYzXY8eQGt-7-1">
          <mxGeometry x="89" y="280" width="60" height="30" as="geometry" />
        </mxCell>
        <mxCell id="0ZaWpNBGSj2NLat99piF-13" value="&lt;span&gt;&lt;font style=&quot;color: rgb(177, 177, 177);&quot;&gt;Optional&lt;/font&gt;&lt;/span&gt;" style="rounded=1;whiteSpace=wrap;html=1;align=left;" vertex="1" parent="Zn7WNAHiJYzXY8eQGt-7-1">
          <mxGeometry x="89" y="310" width="205" height="32.5" as="geometry" />
        </mxCell>
        <mxCell id="0ZaWpNBGSj2NLat99piF-14" value="" style="sketch=0;pointerEvents=1;shadow=0;dashed=0;html=1;strokeColor=none;fillColor=#505050;labelPosition=center;verticalLabelPosition=bottom;verticalAlign=top;outlineConnect=0;align=center;shape=mxgraph.office.concepts.calendar;" vertex="1" parent="Zn7WNAHiJYzXY8eQGt-7-1">
          <mxGeometry x="430" y="170" width="220" height="190" as="geometry" />
        </mxCell>
        <mxCell id="0ZaWpNBGSj2NLat99piF-15" value="Set Due Date" style="text;html=1;align=center;verticalAlign=middle;whiteSpace=wrap;rounded=0;" vertex="1" parent="Zn7WNAHiJYzXY8eQGt-7-1">
          <mxGeometry x="430" y="130" width="100" height="30" as="geometry" />
        </mxCell>
        <mxCell id="0ZaWpNBGSj2NLat99piF-17" value="&lt;font style=&quot;font-size: 18px;&quot;&gt;Add Task&lt;/font&gt;" style="text;html=1;align=center;verticalAlign=middle;whiteSpace=wrap;rounded=0;" vertex="1" parent="Zn7WNAHiJYzXY8eQGt-7-1">
          <mxGeometry x="297.5" y="40" width="135" height="60" as="geometry" />
        </mxCell>
      </root>
    </mxGraphModel>
  </diagram>
  <diagram id="MEy2JIegAGybOjae-aIl" name="All Tasks">
    <mxGraphModel dx="1186" dy="755" grid="1" gridSize="10" guides="1" tooltips="1" connect="1" arrows="1" fold="1" page="1" pageScale="1" pageWidth="850" pageHeight="1100" math="0" shadow="0">
      <root>
        <mxCell id="0" />
        <mxCell id="1" parent="0" />
        <mxCell id="I_7qX9w8HjUf7KPsfNy4-1" value="&lt;div&gt;&lt;span style=&quot;font-size: 14px; background-color: transparent; color: light-dark(rgb(0, 0, 0), rgb(255, 255, 255));&quot;&gt;Study Manager&lt;/span&gt;&lt;/div&gt;" style="swimlane;whiteSpace=wrap;html=1;startSize=40;align=center;fillColor=#F8F5F2;" vertex="1" parent="1">
          <mxGeometry x="380" y="490" width="730" height="490" as="geometry">
            <mxRectangle x="130" y="100" width="50" height="40" as="alternateBounds" />
          </mxGeometry>
        </mxCell>
        <mxCell id="I_7qX9w8HjUf7KPsfNy4-2" value="" style="rounded=0;whiteSpace=wrap;html=1;movable=1;resizable=1;rotatable=1;deletable=1;editable=1;locked=0;connectable=1;fillColor=#F8F5F2;" vertex="1" parent="I_7qX9w8HjUf7KPsfNy4-1">
          <mxGeometry y="40" width="730" height="450" as="geometry" />
        </mxCell>
        <mxCell id="I_7qX9w8HjUf7KPsfNy4-3" value="" style="ellipse;whiteSpace=wrap;html=1;aspect=fixed;fillColor=#f8cecc;strokeColor=#b85450;" vertex="1" parent="I_7qX9w8HjUf7KPsfNy4-1">
          <mxGeometry x="9" y="10" width="20" height="20" as="geometry" />
        </mxCell>
        <mxCell id="I_7qX9w8HjUf7KPsfNy4-4" value="" style="ellipse;whiteSpace=wrap;html=1;aspect=fixed;fillColor=#fff2cc;strokeColor=#d6b656;" vertex="1" parent="I_7qX9w8HjUf7KPsfNy4-1">
          <mxGeometry x="39" y="10" width="20" height="20" as="geometry" />
        </mxCell>
        <mxCell id="I_7qX9w8HjUf7KPsfNy4-5" value="" style="ellipse;whiteSpace=wrap;html=1;aspect=fixed;fillColor=#d5e8d4;strokeColor=#82b366;" vertex="1" parent="I_7qX9w8HjUf7KPsfNy4-1">
          <mxGeometry x="69" y="10" width="20" height="20" as="geometry" />
        </mxCell>
        <mxCell id="I_7qX9w8HjUf7KPsfNy4-29" value="Save" style="rounded=0;whiteSpace=wrap;html=1;fillColor=#f5f5f5;fontColor=#333333;strokeColor=#666666;" vertex="1" parent="I_7qX9w8HjUf7KPsfNy4-1">
          <mxGeometry y="40" width="60" height="30" as="geometry" />
        </mxCell>
        <mxCell id="I_7qX9w8HjUf7KPsfNy4-30" value="Load" style="rounded=0;whiteSpace=wrap;html=1;fillColor=#f5f5f5;fontColor=#333333;strokeColor=#666666;" vertex="1" parent="I_7qX9w8HjUf7KPsfNy4-1">
          <mxGeometry x="59" y="40" width="60" height="30" as="geometry" />
        </mxCell>
        <mxCell id="I_7qX9w8HjUf7KPsfNy4-32" value="Dashboard" style="rounded=0;whiteSpace=wrap;html=1;fillColor=#F5F5F5;" vertex="1" parent="I_7qX9w8HjUf7KPsfNy4-1">
          <mxGeometry x="163" y="40" width="117" height="30" as="geometry" />
        </mxCell>
        <mxCell id="I_7qX9w8HjUf7KPsfNy4-33" value="&lt;font style=&quot;font-size: 16px;&quot;&gt;Imminent&lt;/font&gt;" style="text;html=1;align=center;verticalAlign=middle;whiteSpace=wrap;rounded=0;" vertex="1" parent="I_7qX9w8HjUf7KPsfNy4-1">
          <mxGeometry x="89" y="100" width="91" height="50" as="geometry" />
        </mxCell>
        <mxCell id="I_7qX9w8HjUf7KPsfNy4-34" value="&lt;span style=&quot;font-size: 16px;&quot;&gt;Close&lt;/span&gt;&lt;span style=&quot;color: rgba(0, 0, 0, 0); font-family: monospace; font-size: 0px; text-align: start; text-wrap-mode: nowrap;&quot;&gt;%3CmxGraphModel%3E%3Croot%3E%3CmxCell%20id%3D%220%22%2F%3E%3CmxCell%20id%3D%221%22%20parent%3D%220%22%2F%3E%3CmxCell%20id%3D%222%22%20value%3D%22%26lt%3Bfont%20style%3D%26quot%3Bfont-size%3A%2016px%3B%26quot%3B%26gt%3BImminent%26lt%3B%2Ffont%26gt%3B%22%20style%3D%22text%3Bhtml%3D1%3Balign%3Dcenter%3BverticalAlign%3Dmiddle%3BwhiteSpace%3Dwrap%3Brounded%3D0%3B%22%20vertex%3D%221%22%20parent%3D%221%22%3E%3CmxGeometry%20x%3D%22440%22%20y%3D%22590%22%20width%3D%2291%22%20height%3D%2250%22%20as%3D%22geometry%22%2F%3E%3C%2FmxCell%3E%3C%2Froot%3E%3C%2FmxGraphModel%3E&lt;/span&gt;" style="text;html=1;align=center;verticalAlign=middle;whiteSpace=wrap;rounded=0;" vertex="1" parent="I_7qX9w8HjUf7KPsfNy4-1">
          <mxGeometry x="319.5" y="100" width="91" height="50" as="geometry" />
        </mxCell>
        <mxCell id="I_7qX9w8HjUf7KPsfNy4-35" value="&lt;span style=&quot;font-size: 16px;&quot;&gt;Far&lt;/span&gt;" style="text;html=1;align=center;verticalAlign=middle;whiteSpace=wrap;rounded=0;" vertex="1" parent="I_7qX9w8HjUf7KPsfNy4-1">
          <mxGeometry x="540" y="100" width="91" height="50" as="geometry" />
        </mxCell>
        <mxCell id="QVPWws0L1fkz_EzFktqq-1" value="" style="group" vertex="1" connectable="0" parent="I_7qX9w8HjUf7KPsfNy4-1">
          <mxGeometry x="50" y="160" width="171" height="60" as="geometry" />
        </mxCell>
        <mxCell id="QVPWws0L1fkz_EzFktqq-2" value="" style="rounded=1;whiteSpace=wrap;html=1;align=left;fillColor=#AD4849;" vertex="1" parent="QVPWws0L1fkz_EzFktqq-1">
          <mxGeometry width="171" height="60" as="geometry" />
        </mxCell>
        <mxCell id="QVPWws0L1fkz_EzFktqq-3" value="&lt;font style=&quot;color: rgb(254, 255, 255);&quot;&gt;Exam&lt;/font&gt;" style="text;html=1;align=center;verticalAlign=middle;whiteSpace=wrap;rounded=0;" vertex="1" parent="QVPWws0L1fkz_EzFktqq-1">
          <mxGeometry width="39.310344827586206" height="18" as="geometry" />
        </mxCell>
        <mxCell id="QVPWws0L1fkz_EzFktqq-4" value="&lt;font style=&quot;color: rgb(254, 255, 255);&quot;&gt;Calculus&lt;/font&gt;" style="text;html=1;align=center;verticalAlign=middle;whiteSpace=wrap;rounded=0;" vertex="1" parent="QVPWws0L1fkz_EzFktqq-1">
          <mxGeometry x="13.103448275862068" y="12" width="39.310344827586206" height="18" as="geometry" />
        </mxCell>
        <mxCell id="QVPWws0L1fkz_EzFktqq-5" value="&lt;font color=&quot;#feffff&quot;&gt;&lt;span style=&quot;font-size: 14px;&quot;&gt;May 27, 2025&lt;/span&gt;&lt;/font&gt;" style="text;html=1;align=center;verticalAlign=middle;whiteSpace=wrap;rounded=0;" vertex="1" parent="QVPWws0L1fkz_EzFktqq-1">
          <mxGeometry x="19.655172413793103" y="30" width="63.55172413793103" height="18" as="geometry" />
        </mxCell>
        <mxCell id="QVPWws0L1fkz_EzFktqq-6" value="&lt;font style=&quot;color: rgb(254, 255, 255); font-size: 14px;&quot;&gt;1 day away!&lt;/font&gt;" style="text;html=1;align=center;verticalAlign=middle;whiteSpace=wrap;rounded=0;" vertex="1" parent="QVPWws0L1fkz_EzFktqq-1">
          <mxGeometry x="100.89655172413792" y="30" width="63.55172413793103" height="18" as="geometry" />
        </mxCell>
        <mxCell id="QVPWws0L1fkz_EzFktqq-7" value="" style="endArrow=none;html=1;rounded=0;strokeWidth=2;exitX=1;exitY=0.5;exitDx=0;exitDy=0;entryX=0;entryY=0.5;entryDx=0;entryDy=0;strokeColor=#FEFFFF;" edge="1" parent="QVPWws0L1fkz_EzFktqq-1" source="QVPWws0L1fkz_EzFktqq-5" target="QVPWws0L1fkz_EzFktqq-6">
          <mxGeometry width="50" height="50" relative="1" as="geometry">
            <mxPoint x="205.72413793103448" y="66" as="sourcePoint" />
            <mxPoint x="238.48275862068965" y="36" as="targetPoint" />
          </mxGeometry>
        </mxCell>
        <mxCell id="QVPWws0L1fkz_EzFktqq-8" value="" style="shape=doubleArrow;direction=south;whiteSpace=wrap;html=1;" vertex="1" parent="QVPWws0L1fkz_EzFktqq-1">
          <mxGeometry x="157.89655172413794" y="3" width="6.551724137931034" height="12" as="geometry" />
        </mxCell>
        <mxCell id="QVPWws0L1fkz_EzFktqq-9" value="" style="group" vertex="1" connectable="0" parent="I_7qX9w8HjUf7KPsfNy4-1">
          <mxGeometry x="50" y="235" width="171" height="60" as="geometry" />
        </mxCell>
        <mxCell id="QVPWws0L1fkz_EzFktqq-10" value="" style="rounded=1;whiteSpace=wrap;html=1;align=left;fillColor=#AD4849;" vertex="1" parent="QVPWws0L1fkz_EzFktqq-9">
          <mxGeometry width="171" height="60" as="geometry" />
        </mxCell>
        <mxCell id="QVPWws0L1fkz_EzFktqq-11" value="&lt;font style=&quot;color: rgb(254, 255, 255);&quot;&gt;Exam&lt;/font&gt;" style="text;html=1;align=center;verticalAlign=middle;whiteSpace=wrap;rounded=0;" vertex="1" parent="QVPWws0L1fkz_EzFktqq-9">
          <mxGeometry width="39.310344827586206" height="18" as="geometry" />
        </mxCell>
        <mxCell id="QVPWws0L1fkz_EzFktqq-12" value="&lt;font style=&quot;color: rgb(254, 255, 255);&quot;&gt;Calculus&lt;/font&gt;" style="text;html=1;align=center;verticalAlign=middle;whiteSpace=wrap;rounded=0;" vertex="1" parent="QVPWws0L1fkz_EzFktqq-9">
          <mxGeometry x="13.103448275862068" y="12" width="39.310344827586206" height="18" as="geometry" />
        </mxCell>
        <mxCell id="QVPWws0L1fkz_EzFktqq-13" value="&lt;font color=&quot;#feffff&quot;&gt;&lt;span style=&quot;font-size: 14px;&quot;&gt;May 27, 2025&lt;/span&gt;&lt;/font&gt;" style="text;html=1;align=center;verticalAlign=middle;whiteSpace=wrap;rounded=0;" vertex="1" parent="QVPWws0L1fkz_EzFktqq-9">
          <mxGeometry x="19.655172413793103" y="30" width="63.55172413793103" height="18" as="geometry" />
        </mxCell>
        <mxCell id="QVPWws0L1fkz_EzFktqq-14" value="&lt;font style=&quot;color: rgb(254, 255, 255); font-size: 14px;&quot;&gt;1 day away!&lt;/font&gt;" style="text;html=1;align=center;verticalAlign=middle;whiteSpace=wrap;rounded=0;" vertex="1" parent="QVPWws0L1fkz_EzFktqq-9">
          <mxGeometry x="100.89655172413792" y="30" width="63.55172413793103" height="18" as="geometry" />
        </mxCell>
        <mxCell id="QVPWws0L1fkz_EzFktqq-15" value="" style="endArrow=none;html=1;rounded=0;strokeWidth=2;exitX=1;exitY=0.5;exitDx=0;exitDy=0;entryX=0;entryY=0.5;entryDx=0;entryDy=0;strokeColor=#FEFFFF;" edge="1" parent="QVPWws0L1fkz_EzFktqq-9" source="QVPWws0L1fkz_EzFktqq-13" target="QVPWws0L1fkz_EzFktqq-14">
          <mxGeometry width="50" height="50" relative="1" as="geometry">
            <mxPoint x="205.72413793103448" y="66" as="sourcePoint" />
            <mxPoint x="238.48275862068965" y="36" as="targetPoint" />
          </mxGeometry>
        </mxCell>
        <mxCell id="QVPWws0L1fkz_EzFktqq-16" value="" style="shape=doubleArrow;direction=south;whiteSpace=wrap;html=1;" vertex="1" parent="QVPWws0L1fkz_EzFktqq-9">
          <mxGeometry x="157.89655172413794" y="3" width="6.551724137931034" height="12" as="geometry" />
        </mxCell>
        <mxCell id="QVPWws0L1fkz_EzFktqq-17" value="" style="group" vertex="1" connectable="0" parent="I_7qX9w8HjUf7KPsfNy4-1">
          <mxGeometry x="50" y="310" width="171" height="60" as="geometry" />
        </mxCell>
        <mxCell id="QVPWws0L1fkz_EzFktqq-18" value="" style="rounded=1;whiteSpace=wrap;html=1;align=left;fillColor=#AD4849;" vertex="1" parent="QVPWws0L1fkz_EzFktqq-17">
          <mxGeometry width="171" height="60" as="geometry" />
        </mxCell>
        <mxCell id="QVPWws0L1fkz_EzFktqq-19" value="&lt;font style=&quot;color: rgb(254, 255, 255);&quot;&gt;Exam&lt;/font&gt;" style="text;html=1;align=center;verticalAlign=middle;whiteSpace=wrap;rounded=0;" vertex="1" parent="QVPWws0L1fkz_EzFktqq-17">
          <mxGeometry width="39.310344827586206" height="18" as="geometry" />
        </mxCell>
        <mxCell id="QVPWws0L1fkz_EzFktqq-20" value="&lt;font style=&quot;color: rgb(254, 255, 255);&quot;&gt;Calculus&lt;/font&gt;" style="text;html=1;align=center;verticalAlign=middle;whiteSpace=wrap;rounded=0;" vertex="1" parent="QVPWws0L1fkz_EzFktqq-17">
          <mxGeometry x="13.103448275862068" y="12" width="39.310344827586206" height="18" as="geometry" />
        </mxCell>
        <mxCell id="QVPWws0L1fkz_EzFktqq-21" value="&lt;font color=&quot;#feffff&quot;&gt;&lt;span style=&quot;font-size: 14px;&quot;&gt;May 27, 2025&lt;/span&gt;&lt;/font&gt;" style="text;html=1;align=center;verticalAlign=middle;whiteSpace=wrap;rounded=0;" vertex="1" parent="QVPWws0L1fkz_EzFktqq-17">
          <mxGeometry x="19.655172413793103" y="30" width="63.55172413793103" height="18" as="geometry" />
        </mxCell>
        <mxCell id="QVPWws0L1fkz_EzFktqq-22" value="&lt;font style=&quot;color: rgb(254, 255, 255); font-size: 14px;&quot;&gt;1 day away!&lt;/font&gt;" style="text;html=1;align=center;verticalAlign=middle;whiteSpace=wrap;rounded=0;" vertex="1" parent="QVPWws0L1fkz_EzFktqq-17">
          <mxGeometry x="100.89655172413792" y="30" width="63.55172413793103" height="18" as="geometry" />
        </mxCell>
        <mxCell id="QVPWws0L1fkz_EzFktqq-23" value="" style="endArrow=none;html=1;rounded=0;strokeWidth=2;exitX=1;exitY=0.5;exitDx=0;exitDy=0;entryX=0;entryY=0.5;entryDx=0;entryDy=0;strokeColor=#FEFFFF;" edge="1" parent="QVPWws0L1fkz_EzFktqq-17" source="QVPWws0L1fkz_EzFktqq-21" target="QVPWws0L1fkz_EzFktqq-22">
          <mxGeometry width="50" height="50" relative="1" as="geometry">
            <mxPoint x="205.72413793103448" y="66" as="sourcePoint" />
            <mxPoint x="238.48275862068965" y="36" as="targetPoint" />
          </mxGeometry>
        </mxCell>
        <mxCell id="QVPWws0L1fkz_EzFktqq-24" value="" style="shape=doubleArrow;direction=south;whiteSpace=wrap;html=1;" vertex="1" parent="QVPWws0L1fkz_EzFktqq-17">
          <mxGeometry x="157.89655172413794" y="3" width="6.551724137931034" height="12" as="geometry" />
        </mxCell>
        <mxCell id="qdqB6IIIr9xyv-9EWnjv-1" value="" style="group" vertex="1" connectable="0" parent="I_7qX9w8HjUf7KPsfNy4-1">
          <mxGeometry x="280" y="160" width="171" height="60" as="geometry" />
        </mxCell>
        <mxCell id="qdqB6IIIr9xyv-9EWnjv-2" value="" style="rounded=1;whiteSpace=wrap;html=1;align=left;fillColor=#CFB353;" vertex="1" parent="qdqB6IIIr9xyv-9EWnjv-1">
          <mxGeometry width="171" height="60" as="geometry" />
        </mxCell>
        <mxCell id="qdqB6IIIr9xyv-9EWnjv-3" value="&lt;font style=&quot;color: rgb(254, 255, 255);&quot;&gt;Homework&lt;/font&gt;" style="text;html=1;align=center;verticalAlign=middle;whiteSpace=wrap;rounded=0;" vertex="1" parent="qdqB6IIIr9xyv-9EWnjv-1">
          <mxGeometry x="-3.931034482758621" width="65.51724137931036" height="18" as="geometry" />
        </mxCell>
        <mxCell id="qdqB6IIIr9xyv-9EWnjv-4" value="&lt;font style=&quot;color: rgb(254, 255, 255);&quot;&gt;English&lt;/font&gt;" style="text;html=1;align=center;verticalAlign=middle;whiteSpace=wrap;rounded=0;" vertex="1" parent="qdqB6IIIr9xyv-9EWnjv-1">
          <mxGeometry x="13.103448275862071" y="12" width="39.31034482758621" height="18" as="geometry" />
        </mxCell>
        <mxCell id="qdqB6IIIr9xyv-9EWnjv-5" value="&lt;font color=&quot;#feffff&quot;&gt;&lt;span style=&quot;font-size: 14px;&quot;&gt;June 3, 2025&lt;/span&gt;&lt;/font&gt;" style="text;html=1;align=center;verticalAlign=middle;whiteSpace=wrap;rounded=0;" vertex="1" parent="qdqB6IIIr9xyv-9EWnjv-1">
          <mxGeometry x="19.655172413793107" y="30" width="63.55172413793104" height="18" as="geometry" />
        </mxCell>
        <mxCell id="qdqB6IIIr9xyv-9EWnjv-6" value="&lt;font style=&quot;color: rgb(254, 255, 255); font-size: 14px;&quot;&gt;8 days away!&lt;/font&gt;" style="text;html=1;align=center;verticalAlign=middle;whiteSpace=wrap;rounded=0;" vertex="1" parent="qdqB6IIIr9xyv-9EWnjv-1">
          <mxGeometry x="100.89655172413795" y="30" width="63.55172413793104" height="18" as="geometry" />
        </mxCell>
        <mxCell id="qdqB6IIIr9xyv-9EWnjv-7" value="" style="endArrow=none;html=1;rounded=0;strokeWidth=2;exitX=1;exitY=0.5;exitDx=0;exitDy=0;entryX=0;entryY=0.5;entryDx=0;entryDy=0;strokeColor=#FEFFFF;" edge="1" parent="qdqB6IIIr9xyv-9EWnjv-1" source="qdqB6IIIr9xyv-9EWnjv-5" target="qdqB6IIIr9xyv-9EWnjv-6">
          <mxGeometry width="50" height="50" relative="1" as="geometry">
            <mxPoint x="205.7241379310345" y="66" as="sourcePoint" />
            <mxPoint x="238.48275862068968" y="36" as="targetPoint" />
          </mxGeometry>
        </mxCell>
        <mxCell id="qdqB6IIIr9xyv-9EWnjv-8" value="" style="shape=doubleArrow;direction=south;whiteSpace=wrap;html=1;" vertex="1" parent="qdqB6IIIr9xyv-9EWnjv-1">
          <mxGeometry x="157.89655172413796" y="3" width="6.551724137931036" height="12" as="geometry" />
        </mxCell>
        <mxCell id="qdqB6IIIr9xyv-9EWnjv-10" value="" style="group" vertex="1" connectable="0" parent="I_7qX9w8HjUf7KPsfNy4-1">
          <mxGeometry x="500" y="160" width="171" height="60" as="geometry" />
        </mxCell>
        <mxCell id="qdqB6IIIr9xyv-9EWnjv-11" value="" style="rounded=1;whiteSpace=wrap;html=1;align=left;fillColor=#5DAC70;" vertex="1" parent="qdqB6IIIr9xyv-9EWnjv-10">
          <mxGeometry width="171" height="60" as="geometry" />
        </mxCell>
        <mxCell id="qdqB6IIIr9xyv-9EWnjv-12" value="&lt;font style=&quot;color: rgb(254, 255, 255);&quot;&gt;Homework&lt;/font&gt;" style="text;html=1;align=center;verticalAlign=middle;whiteSpace=wrap;rounded=0;" vertex="1" parent="qdqB6IIIr9xyv-9EWnjv-10">
          <mxGeometry x="-3.931034482758621" width="65.51724137931036" height="18" as="geometry" />
        </mxCell>
        <mxCell id="qdqB6IIIr9xyv-9EWnjv-13" value="&lt;font style=&quot;color: rgb(254, 255, 255);&quot;&gt;English&lt;/font&gt;" style="text;html=1;align=center;verticalAlign=middle;whiteSpace=wrap;rounded=0;" vertex="1" parent="qdqB6IIIr9xyv-9EWnjv-10">
          <mxGeometry x="13.103448275862071" y="12" width="39.31034482758621" height="18" as="geometry" />
        </mxCell>
        <mxCell id="qdqB6IIIr9xyv-9EWnjv-14" value="&lt;font color=&quot;#feffff&quot;&gt;&lt;span style=&quot;font-size: 14px;&quot;&gt;June 3, 2025&lt;/span&gt;&lt;/font&gt;" style="text;html=1;align=center;verticalAlign=middle;whiteSpace=wrap;rounded=0;" vertex="1" parent="qdqB6IIIr9xyv-9EWnjv-10">
          <mxGeometry x="19.655172413793107" y="30" width="63.55172413793104" height="18" as="geometry" />
        </mxCell>
        <mxCell id="qdqB6IIIr9xyv-9EWnjv-15" value="&lt;font style=&quot;color: rgb(254, 255, 255); font-size: 14px;&quot;&gt;8 days away!&lt;/font&gt;" style="text;html=1;align=center;verticalAlign=middle;whiteSpace=wrap;rounded=0;" vertex="1" parent="qdqB6IIIr9xyv-9EWnjv-10">
          <mxGeometry x="100.89655172413795" y="30" width="63.55172413793104" height="18" as="geometry" />
        </mxCell>
        <mxCell id="qdqB6IIIr9xyv-9EWnjv-16" value="" style="endArrow=none;html=1;rounded=0;strokeWidth=2;exitX=1;exitY=0.5;exitDx=0;exitDy=0;entryX=0;entryY=0.5;entryDx=0;entryDy=0;strokeColor=#FEFFFF;" edge="1" parent="qdqB6IIIr9xyv-9EWnjv-10" source="qdqB6IIIr9xyv-9EWnjv-14" target="qdqB6IIIr9xyv-9EWnjv-15">
          <mxGeometry width="50" height="50" relative="1" as="geometry">
            <mxPoint x="205.7241379310345" y="66" as="sourcePoint" />
            <mxPoint x="238.48275862068968" y="36" as="targetPoint" />
          </mxGeometry>
        </mxCell>
        <mxCell id="qdqB6IIIr9xyv-9EWnjv-17" value="" style="shape=doubleArrow;direction=south;whiteSpace=wrap;html=1;" vertex="1" parent="qdqB6IIIr9xyv-9EWnjv-10">
          <mxGeometry x="157.89655172413796" y="3" width="6.551724137931036" height="12" as="geometry" />
        </mxCell>
        <mxCell id="OY3v7R_vy5vlaGlE4aLg-9" value="" style="group" vertex="1" connectable="0" parent="I_7qX9w8HjUf7KPsfNy4-1">
          <mxGeometry x="280" y="310" width="171" height="60" as="geometry" />
        </mxCell>
        <mxCell id="OY3v7R_vy5vlaGlE4aLg-10" value="" style="rounded=1;whiteSpace=wrap;html=1;align=left;fillColor=#CFB353;" vertex="1" parent="OY3v7R_vy5vlaGlE4aLg-9">
          <mxGeometry width="171" height="60" as="geometry" />
        </mxCell>
        <mxCell id="OY3v7R_vy5vlaGlE4aLg-11" value="&lt;font style=&quot;color: rgb(254, 255, 255);&quot;&gt;Homework&lt;/font&gt;" style="text;html=1;align=center;verticalAlign=middle;whiteSpace=wrap;rounded=0;" vertex="1" parent="OY3v7R_vy5vlaGlE4aLg-9">
          <mxGeometry x="-3.931034482758621" width="65.51724137931036" height="18" as="geometry" />
        </mxCell>
        <mxCell id="OY3v7R_vy5vlaGlE4aLg-12" value="&lt;font style=&quot;color: rgb(254, 255, 255);&quot;&gt;English&lt;/font&gt;" style="text;html=1;align=center;verticalAlign=middle;whiteSpace=wrap;rounded=0;" vertex="1" parent="OY3v7R_vy5vlaGlE4aLg-9">
          <mxGeometry x="13.103448275862071" y="12" width="39.31034482758621" height="18" as="geometry" />
        </mxCell>
        <mxCell id="OY3v7R_vy5vlaGlE4aLg-13" value="&lt;font color=&quot;#feffff&quot;&gt;&lt;span style=&quot;font-size: 14px;&quot;&gt;June 3, 2025&lt;/span&gt;&lt;/font&gt;" style="text;html=1;align=center;verticalAlign=middle;whiteSpace=wrap;rounded=0;" vertex="1" parent="OY3v7R_vy5vlaGlE4aLg-9">
          <mxGeometry x="19.655172413793107" y="30" width="63.55172413793104" height="18" as="geometry" />
        </mxCell>
        <mxCell id="OY3v7R_vy5vlaGlE4aLg-14" value="&lt;font style=&quot;color: rgb(254, 255, 255); font-size: 14px;&quot;&gt;8 days away!&lt;/font&gt;" style="text;html=1;align=center;verticalAlign=middle;whiteSpace=wrap;rounded=0;" vertex="1" parent="OY3v7R_vy5vlaGlE4aLg-9">
          <mxGeometry x="100.89655172413795" y="30" width="63.55172413793104" height="18" as="geometry" />
        </mxCell>
        <mxCell id="OY3v7R_vy5vlaGlE4aLg-15" value="" style="endArrow=none;html=1;rounded=0;strokeWidth=2;exitX=1;exitY=0.5;exitDx=0;exitDy=0;entryX=0;entryY=0.5;entryDx=0;entryDy=0;strokeColor=#FEFFFF;" edge="1" parent="OY3v7R_vy5vlaGlE4aLg-9" source="OY3v7R_vy5vlaGlE4aLg-13" target="OY3v7R_vy5vlaGlE4aLg-14">
          <mxGeometry width="50" height="50" relative="1" as="geometry">
            <mxPoint x="205.7241379310345" y="66" as="sourcePoint" />
            <mxPoint x="238.48275862068968" y="36" as="targetPoint" />
          </mxGeometry>
        </mxCell>
        <mxCell id="OY3v7R_vy5vlaGlE4aLg-16" value="" style="shape=doubleArrow;direction=south;whiteSpace=wrap;html=1;" vertex="1" parent="OY3v7R_vy5vlaGlE4aLg-9">
          <mxGeometry x="157.89655172413796" y="3" width="6.551724137931036" height="12" as="geometry" />
        </mxCell>
        <mxCell id="OY3v7R_vy5vlaGlE4aLg-1" value="" style="group" vertex="1" connectable="0" parent="I_7qX9w8HjUf7KPsfNy4-1">
          <mxGeometry x="280" y="235" width="171" height="60" as="geometry" />
        </mxCell>
        <mxCell id="OY3v7R_vy5vlaGlE4aLg-2" value="" style="rounded=1;whiteSpace=wrap;html=1;align=left;fillColor=#CFB353;" vertex="1" parent="OY3v7R_vy5vlaGlE4aLg-1">
          <mxGeometry width="171" height="60" as="geometry" />
        </mxCell>
        <mxCell id="OY3v7R_vy5vlaGlE4aLg-3" value="&lt;font style=&quot;color: rgb(254, 255, 255);&quot;&gt;Homework&lt;/font&gt;" style="text;html=1;align=center;verticalAlign=middle;whiteSpace=wrap;rounded=0;" vertex="1" parent="OY3v7R_vy5vlaGlE4aLg-1">
          <mxGeometry x="-3.931034482758621" width="65.51724137931036" height="18" as="geometry" />
        </mxCell>
        <mxCell id="OY3v7R_vy5vlaGlE4aLg-4" value="&lt;font style=&quot;color: rgb(254, 255, 255);&quot;&gt;English&lt;/font&gt;" style="text;html=1;align=center;verticalAlign=middle;whiteSpace=wrap;rounded=0;" vertex="1" parent="OY3v7R_vy5vlaGlE4aLg-1">
          <mxGeometry x="13.103448275862071" y="12" width="39.31034482758621" height="18" as="geometry" />
        </mxCell>
        <mxCell id="OY3v7R_vy5vlaGlE4aLg-5" value="&lt;font color=&quot;#feffff&quot;&gt;&lt;span style=&quot;font-size: 14px;&quot;&gt;June 3, 2025&lt;/span&gt;&lt;/font&gt;" style="text;html=1;align=center;verticalAlign=middle;whiteSpace=wrap;rounded=0;" vertex="1" parent="OY3v7R_vy5vlaGlE4aLg-1">
          <mxGeometry x="19.655172413793107" y="30" width="63.55172413793104" height="18" as="geometry" />
        </mxCell>
        <mxCell id="OY3v7R_vy5vlaGlE4aLg-6" value="&lt;font style=&quot;color: rgb(254, 255, 255); font-size: 14px;&quot;&gt;8 days away!&lt;/font&gt;" style="text;html=1;align=center;verticalAlign=middle;whiteSpace=wrap;rounded=0;" vertex="1" parent="OY3v7R_vy5vlaGlE4aLg-1">
          <mxGeometry x="100.89655172413795" y="30" width="63.55172413793104" height="18" as="geometry" />
        </mxCell>
        <mxCell id="OY3v7R_vy5vlaGlE4aLg-7" value="" style="endArrow=none;html=1;rounded=0;strokeWidth=2;exitX=1;exitY=0.5;exitDx=0;exitDy=0;entryX=0;entryY=0.5;entryDx=0;entryDy=0;strokeColor=#FEFFFF;" edge="1" parent="OY3v7R_vy5vlaGlE4aLg-1" source="OY3v7R_vy5vlaGlE4aLg-5" target="OY3v7R_vy5vlaGlE4aLg-6">
          <mxGeometry width="50" height="50" relative="1" as="geometry">
            <mxPoint x="205.7241379310345" y="66" as="sourcePoint" />
            <mxPoint x="238.48275862068968" y="36" as="targetPoint" />
          </mxGeometry>
        </mxCell>
        <mxCell id="OY3v7R_vy5vlaGlE4aLg-8" value="" style="shape=doubleArrow;direction=south;whiteSpace=wrap;html=1;" vertex="1" parent="OY3v7R_vy5vlaGlE4aLg-1">
          <mxGeometry x="157.89655172413796" y="3" width="6.551724137931036" height="12" as="geometry" />
        </mxCell>
        <mxCell id="OY3v7R_vy5vlaGlE4aLg-25" value="" style="group" vertex="1" connectable="0" parent="I_7qX9w8HjUf7KPsfNy4-1">
          <mxGeometry x="500" y="310" width="171" height="60" as="geometry" />
        </mxCell>
        <mxCell id="OY3v7R_vy5vlaGlE4aLg-26" value="" style="rounded=1;whiteSpace=wrap;html=1;align=left;fillColor=#5DAC70;" vertex="1" parent="OY3v7R_vy5vlaGlE4aLg-25">
          <mxGeometry width="171" height="60" as="geometry" />
        </mxCell>
        <mxCell id="OY3v7R_vy5vlaGlE4aLg-27" value="&lt;font style=&quot;color: rgb(254, 255, 255);&quot;&gt;Homework&lt;/font&gt;" style="text;html=1;align=center;verticalAlign=middle;whiteSpace=wrap;rounded=0;" vertex="1" parent="OY3v7R_vy5vlaGlE4aLg-25">
          <mxGeometry x="-3.931034482758621" width="65.51724137931036" height="18" as="geometry" />
        </mxCell>
        <mxCell id="OY3v7R_vy5vlaGlE4aLg-28" value="&lt;font style=&quot;color: rgb(254, 255, 255);&quot;&gt;English&lt;/font&gt;" style="text;html=1;align=center;verticalAlign=middle;whiteSpace=wrap;rounded=0;" vertex="1" parent="OY3v7R_vy5vlaGlE4aLg-25">
          <mxGeometry x="13.103448275862071" y="12" width="39.31034482758621" height="18" as="geometry" />
        </mxCell>
        <mxCell id="OY3v7R_vy5vlaGlE4aLg-29" value="&lt;font color=&quot;#feffff&quot;&gt;&lt;span style=&quot;font-size: 14px;&quot;&gt;June 3, 2025&lt;/span&gt;&lt;/font&gt;" style="text;html=1;align=center;verticalAlign=middle;whiteSpace=wrap;rounded=0;" vertex="1" parent="OY3v7R_vy5vlaGlE4aLg-25">
          <mxGeometry x="19.655172413793107" y="30" width="63.55172413793104" height="18" as="geometry" />
        </mxCell>
        <mxCell id="OY3v7R_vy5vlaGlE4aLg-30" value="&lt;font style=&quot;color: rgb(254, 255, 255); font-size: 14px;&quot;&gt;8 days away!&lt;/font&gt;" style="text;html=1;align=center;verticalAlign=middle;whiteSpace=wrap;rounded=0;" vertex="1" parent="OY3v7R_vy5vlaGlE4aLg-25">
          <mxGeometry x="100.89655172413795" y="30" width="63.55172413793104" height="18" as="geometry" />
        </mxCell>
        <mxCell id="OY3v7R_vy5vlaGlE4aLg-31" value="" style="endArrow=none;html=1;rounded=0;strokeWidth=2;exitX=1;exitY=0.5;exitDx=0;exitDy=0;entryX=0;entryY=0.5;entryDx=0;entryDy=0;strokeColor=#FEFFFF;" edge="1" parent="OY3v7R_vy5vlaGlE4aLg-25" source="OY3v7R_vy5vlaGlE4aLg-29" target="OY3v7R_vy5vlaGlE4aLg-30">
          <mxGeometry width="50" height="50" relative="1" as="geometry">
            <mxPoint x="205.7241379310345" y="66" as="sourcePoint" />
            <mxPoint x="238.48275862068968" y="36" as="targetPoint" />
          </mxGeometry>
        </mxCell>
        <mxCell id="OY3v7R_vy5vlaGlE4aLg-32" value="" style="shape=doubleArrow;direction=south;whiteSpace=wrap;html=1;" vertex="1" parent="OY3v7R_vy5vlaGlE4aLg-25">
          <mxGeometry x="157.89655172413796" y="3" width="6.551724137931036" height="12" as="geometry" />
        </mxCell>
        <mxCell id="OY3v7R_vy5vlaGlE4aLg-17" value="" style="group" vertex="1" connectable="0" parent="I_7qX9w8HjUf7KPsfNy4-1">
          <mxGeometry x="500" y="230" width="171" height="60" as="geometry" />
        </mxCell>
        <mxCell id="OY3v7R_vy5vlaGlE4aLg-18" value="" style="rounded=1;whiteSpace=wrap;html=1;align=left;fillColor=#5DAC70;" vertex="1" parent="OY3v7R_vy5vlaGlE4aLg-17">
          <mxGeometry width="171" height="60" as="geometry" />
        </mxCell>
        <mxCell id="OY3v7R_vy5vlaGlE4aLg-19" value="&lt;font style=&quot;color: rgb(254, 255, 255);&quot;&gt;Homework&lt;/font&gt;" style="text;html=1;align=center;verticalAlign=middle;whiteSpace=wrap;rounded=0;" vertex="1" parent="OY3v7R_vy5vlaGlE4aLg-17">
          <mxGeometry x="-3.931034482758621" width="65.51724137931036" height="18" as="geometry" />
        </mxCell>
        <mxCell id="OY3v7R_vy5vlaGlE4aLg-20" value="&lt;font style=&quot;color: rgb(254, 255, 255);&quot;&gt;English&lt;/font&gt;" style="text;html=1;align=center;verticalAlign=middle;whiteSpace=wrap;rounded=0;" vertex="1" parent="OY3v7R_vy5vlaGlE4aLg-17">
          <mxGeometry x="13.103448275862071" y="12" width="39.31034482758621" height="18" as="geometry" />
        </mxCell>
        <mxCell id="OY3v7R_vy5vlaGlE4aLg-21" value="&lt;font color=&quot;#feffff&quot;&gt;&lt;span style=&quot;font-size: 14px;&quot;&gt;June 3, 2025&lt;/span&gt;&lt;/font&gt;" style="text;html=1;align=center;verticalAlign=middle;whiteSpace=wrap;rounded=0;" vertex="1" parent="OY3v7R_vy5vlaGlE4aLg-17">
          <mxGeometry x="19.655172413793107" y="30" width="63.55172413793104" height="18" as="geometry" />
        </mxCell>
        <mxCell id="OY3v7R_vy5vlaGlE4aLg-22" value="&lt;font style=&quot;color: rgb(254, 255, 255); font-size: 14px;&quot;&gt;8 days away!&lt;/font&gt;" style="text;html=1;align=center;verticalAlign=middle;whiteSpace=wrap;rounded=0;" vertex="1" parent="OY3v7R_vy5vlaGlE4aLg-17">
          <mxGeometry x="100.89655172413795" y="30" width="63.55172413793104" height="18" as="geometry" />
        </mxCell>
        <mxCell id="OY3v7R_vy5vlaGlE4aLg-23" value="" style="endArrow=none;html=1;rounded=0;strokeWidth=2;exitX=1;exitY=0.5;exitDx=0;exitDy=0;entryX=0;entryY=0.5;entryDx=0;entryDy=0;strokeColor=#FEFFFF;" edge="1" parent="OY3v7R_vy5vlaGlE4aLg-17" source="OY3v7R_vy5vlaGlE4aLg-21" target="OY3v7R_vy5vlaGlE4aLg-22">
          <mxGeometry width="50" height="50" relative="1" as="geometry">
            <mxPoint x="205.7241379310345" y="66" as="sourcePoint" />
            <mxPoint x="238.48275862068968" y="36" as="targetPoint" />
          </mxGeometry>
        </mxCell>
        <mxCell id="OY3v7R_vy5vlaGlE4aLg-24" value="" style="shape=doubleArrow;direction=south;whiteSpace=wrap;html=1;" vertex="1" parent="OY3v7R_vy5vlaGlE4aLg-17">
          <mxGeometry x="157.89655172413796" y="3" width="6.551724137931036" height="12" as="geometry" />
        </mxCell>
        <mxCell id="OY3v7R_vy5vlaGlE4aLg-34" value="" style="rounded=1;whiteSpace=wrap;html=1;fillColor=#BBBBBB;direction=south;strokeColor=none;gradientColor=none;" vertex="1" parent="I_7qX9w8HjUf7KPsfNy4-1">
          <mxGeometry x="250" y="160" width="10" height="210" as="geometry" />
        </mxCell>
        <mxCell id="OY3v7R_vy5vlaGlE4aLg-35" value="" style="rounded=1;whiteSpace=wrap;html=1;fillColor=#BBBBBB;direction=south;strokeColor=none;gradientColor=none;" vertex="1" parent="I_7qX9w8HjUf7KPsfNy4-1">
          <mxGeometry x="470" y="160" width="10" height="210" as="geometry" />
        </mxCell>
        <mxCell id="Rl9VFyMa5dIjerhntD_9-1" value="&lt;font style=&quot;color: rgb(254, 255, 255);&quot;&gt;&lt;font style=&quot;font-size: 17px;&quot;&gt;+ &lt;/font&gt;Add Task&lt;/font&gt;" style="whiteSpace=wrap;html=1;fillColor=#5DAC70;strokeColor=none;rounded=1;" vertex="1" parent="I_7qX9w8HjUf7KPsfNy4-1">
          <mxGeometry x="620" y="50" width="90" height="40" as="geometry" />
        </mxCell>
        <mxCell id="Rl9VFyMa5dIjerhntD_9-2" value="Delete" style="rounded=1;whiteSpace=wrap;html=1;fillColor=#FF6666;" vertex="1" parent="I_7qX9w8HjUf7KPsfNy4-1">
          <mxGeometry x="200" y="410" width="110" height="30" as="geometry" />
        </mxCell>
        <mxCell id="Rl9VFyMa5dIjerhntD_9-3" value="Edit" style="rounded=1;whiteSpace=wrap;html=1;fillColor=#5079FF;strokeColor=#000000;" vertex="1" parent="I_7qX9w8HjUf7KPsfNy4-1">
          <mxGeometry x="420" y="410" width="110" height="30" as="geometry" />
        </mxCell>
      </root>
    </mxGraphModel>
  </diagram>
</mxfile>
